<?xml version="1.0" standalone="no"?>
<!DOCTYPE svg PUBLIC "-//W3C//DTD SVG 20010904//EN"
 "http://www.w3.org/TR/2001/REC-SVG-20010904/DTD/svg10.dtd">
<svg version="1.0" xmlns="http://www.w3.org/2000/svg"
 width="600.000000pt" height="600.000000pt" viewBox="0 0 600.000000 600.000000"
 preserveAspectRatio="xMidYMid meet">
<metadata>
Created by potrace 1.11, written by Peter Selinger 2001-2013
</metadata>
<g transform="translate(0.000000,600.000000) scale(0.100000,-0.100000)"
fill="#000000" stroke="none">
<path d="M3165 5874 c-13 -13 -15 -29 -10 -83 4 -36 8 -82 10 -101 2 -19 6
-75 11 -125 14 -164 9 -432 -12 -610 -12 -103 -27 -171 -74 -335 -21 -76 -25
-87 -52 -150 -9 -19 -16 -38 -17 -42 -3 -16 -83 -162 -97 -175 -8 -8 -14 -19
-14 -25 0 -6 -11 -26 -25 -44 -14 -18 -25 -35 -25 -38 0 -3 -10 -16 -22 -29
-13 -13 -37 -41 -55 -63 -81 -98 -215 -224 -239 -224 -7 0 -14 -7 -18 -15 -3
-8 -12 -15 -20 -15 -8 0 -16 -4 -18 -8 -5 -13 -65 -52 -80 -52 -7 0 -25 -11
-39 -24 -14 -13 -41 -30 -60 -39 -263 -118 -283 -124 -315 -93 -13 14 -61 88
-62 99 -1 4 -18 40 -39 80 -21 39 -39 77 -40 82 -9 44 -13 57 -19 67 -4 7 -9
21 -10 33 -1 11 -8 34 -14 50 -6 17 -11 31 -11 32 0 2 -5 17 -10 35 -19 61
-31 143 -44 288 -8 103 -11 113 -35 128 -17 10 -27 10 -58 -5 -38 -17 -123
-71 -132 -84 -3 -3 -20 -16 -38 -27 -37 -22 -97 -71 -175 -144 -28 -27 -54
-48 -59 -48 -4 0 -8 -3 -8 -7 0 -5 -30 -39 -66 -78 -64 -67 -168 -192 -189
-226 -28 -46 -65 -98 -80 -112 -9 -10 -14 -17 -10 -17 5 0 -23 -48 -35 -60 -7
-7 -34 -57 -60 -110 -12 -25 -28 -56 -36 -70 -9 -14 -18 -33 -21 -42 -3 -10
-9 -18 -14 -18 -5 0 -9 -13 -9 -30 0 -16 -4 -30 -10 -30 -5 0 -13 -12 -16 -27
-4 -16 -11 -34 -17 -40 -5 -7 -7 -13 -3 -13 3 0 -5 -22 -19 -50 -14 -27 -23
-50 -21 -50 3 0 0 -15 -5 -32 -14 -45 -47 -170 -66 -248 -9 -36 -16 -104 -17
-152 0 -51 -4 -84 -10 -81 -5 4 -6 1 -1 -6 13 -21 14 -102 1 -94 -6 4 -5 -1 3
-11 13 -15 13 -19 0 -27 -8 -5 -9 -9 -4 -9 6 0 10 -27 10 -59 0 -35 -3 -57 -9
-54 -5 4 -6 0 0 -8 4 -8 9 -61 10 -119 1 -58 5 -121 8 -140 4 -19 8 -52 11
-72 2 -21 9 -47 15 -57 6 -11 10 -24 9 -28 -1 -4 0 -11 1 -15 4 -12 6 -20 15
-68 5 -25 9 -47 10 -50 1 -3 5 -23 10 -45 13 -56 12 -54 15 -60 1 -3 4 -9 5
-15 1 -5 4 -12 5 -15 1 -3 3 -8 4 -12 1 -5 9 -24 17 -43 20 -44 38 -96 49
-135 4 -16 26 -66 49 -110 22 -44 41 -84 41 -90 0 -5 11 -23 25 -39 23 -27 29
-40 26 -58 0 -5 3 -8 8 -8 5 0 18 -19 29 -42 12 -24 34 -59 51 -78 17 -19 28
-36 25 -39 -2 -2 7 -16 20 -30 13 -14 46 -54 74 -89 68 -85 164 -186 242 -252
36 -30 79 -67 95 -82 17 -16 36 -28 42 -28 7 0 25 -14 40 -30 14 -17 32 -30
40 -30 7 0 13 -3 13 -8 0 -4 13 -13 28 -20 16 -6 38 -21 50 -32 12 -11 24 -20
27 -20 3 0 20 -7 38 -17 17 -9 37 -18 42 -19 6 -1 32 -15 59 -32 27 -17 72
-39 100 -48 28 -9 56 -20 61 -25 15 -11 244 -89 279 -94 15 -2 33 -8 40 -13 6
-5 43 -14 81 -20 39 -7 81 -14 95 -18 28 -6 60 -11 135 -17 28 -3 61 -9 75
-14 14 -5 64 -8 113 -8 48 0 87 -2 87 -5 0 -3 59 -5 130 -5 72 0 130 2 130 5
0 3 35 5 78 5 42 0 97 4 122 8 25 4 61 10 80 14 19 3 50 6 68 7 17 0 32 3 32
6 0 3 8 6 18 7 9 1 31 4 47 8 17 4 41 8 55 11 47 8 55 10 112 32 32 12 72 24
89 27 18 3 40 10 50 16 11 5 19 8 19 5 0 -3 25 8 56 25 31 16 61 29 68 29 12
0 278 131 286 141 3 3 30 21 60 40 30 18 57 35 60 38 3 4 28 21 55 40 28 19
66 48 86 65 20 17 56 47 80 66 63 50 224 215 271 278 22 29 46 56 54 59 8 3
14 10 14 17 0 6 27 47 60 91 33 44 60 84 60 89 0 5 11 23 24 40 27 36 59 95
62 115 2 8 7 17 12 20 8 6 34 58 80 161 24 55 74 196 95 270 9 30 23 76 31
101 8 25 17 64 20 85 3 21 9 55 13 74 4 19 7 59 8 88 0 28 2 52 5 52 3 0 7 17
8 38 2 49 7 75 14 88 7 11 2 323 -6 397 -12 98 -16 144 -21 202 -2 33 -7 71
-11 85 -3 14 -6 32 -6 40 0 8 -5 35 -10 60 -5 25 -10 56 -10 70 0 14 -5 34
-11 45 -6 11 -10 24 -8 29 1 6 -2 19 -8 30 -5 12 -17 53 -26 91 -30 128 -33
140 -45 175 -7 19 -19 47 -26 61 -8 15 -15 35 -17 45 -2 11 -11 37 -20 58 -10
22 -15 41 -13 44 3 2 -6 21 -19 41 -14 19 -25 39 -25 43 0 4 -5 19 -12 35 -12
30 -15 38 -17 52 0 5 -7 16 -13 23 -16 18 -48 77 -48 89 0 5 -17 37 -37 72
-21 34 -49 85 -63 112 -14 28 -37 64 -52 80 -16 17 -28 38 -28 48 0 9 -4 17
-9 17 -5 0 -12 8 -15 18 -4 10 -14 27 -24 38 -9 10 -30 39 -47 64 -16 25 -38
54 -48 65 -9 11 -35 44 -57 73 -22 28 -45 52 -50 52 -6 0 -10 6 -10 13 0 7
-19 34 -42 59 -97 104 -153 169 -156 178 -2 6 -10 10 -18 10 -8 0 -14 4 -14 9
0 4 -16 23 -36 42 -21 19 -59 54 -85 79 -26 25 -69 63 -94 85 -25 22 -61 55
-80 73 -18 17 -37 32 -42 32 -4 0 -26 17 -48 37 -22 20 -83 67 -135 104 -52
37 -108 78 -125 92 -16 13 -46 32 -65 43 -19 10 -37 22 -40 25 -3 3 -39 25
-80 50 -41 24 -77 46 -80 49 -3 4 -41 26 -85 50 -44 24 -92 52 -107 62 -16 11
-28 17 -28 14 0 -4 -18 5 -39 18 -21 14 -42 22 -45 19 -3 -4 -6 -1 -6 5 0 17
-16 15 -35 -4z"/>
</g>
</svg>
